<svg width="135" height="38" viewBox="0 0 135 38" fill="none" xmlns="http://www.w3.org/2000/svg">
<g opacity="0.3">
<mask id="mask0_1_11" style="mask-type:alpha" maskUnits="userSpaceOnUse" x="0" y="15" width="9" height="8">
<path d="M4.1689 22.9887C6.32813 22.9887 8.07853 21.2028 8.07853 19C8.07853 16.7971 6.32813 15.0113 4.1689 15.0113C2.00967 15.0113 0.259277 16.7971 0.259277 19C0.259277 21.2028 2.00967 22.9887 4.1689 22.9887Z" fill="url(#paint0_linear_1_11)"/>
</mask>
<g mask="url(#mask0_1_11)">
<path d="M4.1689 22.9887C6.32813 22.9887 8.07853 21.2028 8.07853 19C8.07853 16.7971 6.32813 15.0113 4.1689 15.0113C2.00967 15.0113 0.259277 16.7971 0.259277 19C0.259277 21.2028 2.00967 22.9887 4.1689 22.9887Z" fill="url(#paint1_linear_1_11)"/>
</g>
<mask id="mask1_1_11" style="mask-type:alpha" maskUnits="userSpaceOnUse" x="8" y="15" width="8" height="8">
<path d="M11.9882 22.9886C14.1474 22.9886 15.8978 21.2029 15.8978 19C15.8978 16.7971 14.1474 15.0114 11.9882 15.0114C9.82895 15.0114 8.07855 16.7971 8.07855 19C8.07855 21.2029 9.82895 22.9886 11.9882 22.9886Z" fill="url(#paint2_linear_1_11)"/>
</mask>
<g mask="url(#mask1_1_11)">
<path d="M11.9882 22.9887C14.1474 22.9887 15.8978 21.2029 15.8978 19C15.8978 16.7972 14.1474 15.0114 11.9882 15.0114C9.82895 15.0114 8.07855 16.7972 8.07855 19C8.07855 21.2029 9.82895 22.9887 11.9882 22.9887Z" fill="url(#paint3_linear_1_11)"/>
</g>
<mask id="mask2_1_11" style="mask-type:alpha" maskUnits="userSpaceOnUse" x="15" y="15" width="9" height="8">
<path d="M19.8074 22.9887C21.9666 22.9887 23.717 21.2029 23.717 19C23.717 16.7971 21.9666 15.0113 19.8074 15.0113C17.6482 15.0113 15.8978 16.7971 15.8978 19C15.8978 21.2029 17.6482 22.9887 19.8074 22.9887Z" fill="url(#paint4_linear_1_11)"/>
</mask>
<g mask="url(#mask2_1_11)">
<path d="M19.8074 22.9888C21.9666 22.9888 23.717 21.203 23.717 19.0001C23.717 16.7972 21.9666 15.0114 19.8074 15.0114C17.6482 15.0114 15.8978 16.7972 15.8978 19.0001C15.8978 21.203 17.6482 22.9888 19.8074 22.9888Z" fill="url(#paint5_linear_1_11)"/>
</g>
<mask id="mask3_1_11" style="mask-type:alpha" maskUnits="userSpaceOnUse" x="23" y="15" width="9" height="8">
<path d="M27.6267 22.9887C29.7859 22.9887 31.5363 21.2028 31.5363 19C31.5363 16.7971 29.7859 15.0113 27.6267 15.0113C25.4674 15.0113 23.717 16.7971 23.717 19C23.717 21.2028 25.4674 22.9887 27.6267 22.9887Z" fill="url(#paint6_linear_1_11)"/>
</mask>
<g mask="url(#mask3_1_11)">
<path d="M27.6267 22.9884C29.7859 22.9884 31.5363 21.2026 31.5363 18.9997C31.5363 16.7969 29.7859 15.0111 27.6267 15.0111C25.4674 15.0111 23.717 16.7969 23.717 18.9997C23.717 21.2026 25.4674 22.9884 27.6267 22.9884Z" fill="url(#paint7_linear_1_11)"/>
</g>
<mask id="mask4_1_11" style="mask-type:alpha" maskUnits="userSpaceOnUse" x="31" y="15" width="9" height="8">
<path d="M35.4459 22.9887C37.6052 22.9887 39.3556 21.2029 39.3556 19C39.3556 16.7971 37.6052 15.0113 35.4459 15.0113C33.2867 15.0113 31.5363 16.7971 31.5363 19C31.5363 21.2029 33.2867 22.9887 35.4459 22.9887Z" fill="url(#paint8_linear_1_11)"/>
</mask>
<g mask="url(#mask4_1_11)">
<path d="M35.4459 22.9883C37.6052 22.9883 39.3556 21.2025 39.3556 18.9996C39.3556 16.7967 37.6052 15.0109 35.4459 15.0109C33.2867 15.0109 31.5363 16.7967 31.5363 18.9996C31.5363 21.2025 33.2867 22.9883 35.4459 22.9883Z" fill="url(#paint9_linear_1_11)"/>
</g>
<mask id="mask5_1_11" style="mask-type:alpha" maskUnits="userSpaceOnUse" x="39" y="15" width="9" height="8">
<path d="M43.2652 22.9887C45.4244 22.9887 47.1748 21.2028 47.1748 19C47.1748 16.7971 45.4244 15.0113 43.2652 15.0113C41.1059 15.0113 39.3555 16.7971 39.3555 19C39.3555 21.2028 41.1059 22.9887 43.2652 22.9887Z" fill="url(#paint10_linear_1_11)"/>
</mask>
<g mask="url(#mask5_1_11)">
<path d="M43.2655 22.9887C45.4248 22.9887 47.1752 21.2028 47.1752 19C47.1752 16.7971 45.4248 15.0113 43.2655 15.0113C41.1063 15.0113 39.3559 16.7971 39.3559 19C39.3559 21.2028 41.1063 22.9887 43.2655 22.9887Z" fill="url(#paint11_linear_1_11)"/>
</g>
<mask id="mask6_1_11" style="mask-type:alpha" maskUnits="userSpaceOnUse" x="47" y="15" width="8" height="8">
<path d="M51.0844 22.9886C53.2437 22.9886 54.9941 21.2029 54.9941 19C54.9941 16.7971 53.2437 15.0114 51.0844 15.0114C48.9252 15.0114 47.1748 16.7971 47.1748 19C47.1748 21.2029 48.9252 22.9886 51.0844 22.9886Z" fill="url(#paint12_linear_1_11)"/>
</mask>
<g mask="url(#mask6_1_11)">
<path d="M51.0848 22.9886C53.244 22.9886 54.9944 21.2028 54.9944 18.9999C54.9944 16.7971 53.244 15.0113 51.0848 15.0113C48.9256 15.0113 47.1752 16.7971 47.1752 18.9999C47.1752 21.2028 48.9256 22.9886 51.0848 22.9886Z" fill="url(#paint13_linear_1_11)"/>
</g>
<mask id="mask7_1_11" style="mask-type:alpha" maskUnits="userSpaceOnUse" x="54" y="15" width="9" height="8">
<path d="M58.9037 22.9887C61.0629 22.9887 62.8133 21.2029 62.8133 19C62.8133 16.7971 61.0629 15.0113 58.9037 15.0113C56.7445 15.0113 54.9941 16.7971 54.9941 19C54.9941 21.2029 56.7445 22.9887 58.9037 22.9887Z" fill="url(#paint14_linear_1_11)"/>
</mask>
<g mask="url(#mask7_1_11)">
<path d="M58.9041 22.9885C61.0633 22.9885 62.8137 21.2027 62.8137 18.9998C62.8137 16.7969 61.0633 15.0111 58.9041 15.0111C56.7448 15.0111 54.9944 16.7969 54.9944 18.9998C54.9944 21.2027 56.7448 22.9885 58.9041 22.9885Z" fill="url(#paint15_linear_1_11)"/>
</g>
<mask id="mask8_1_11" style="mask-type:alpha" maskUnits="userSpaceOnUse" x="62" y="15" width="9" height="8">
<path d="M66.723 22.9887C68.8822 22.9887 70.6326 21.2028 70.6326 19C70.6326 16.7971 68.8822 15.0113 66.723 15.0113C64.5638 15.0113 62.8134 16.7971 62.8134 19C62.8134 21.2028 64.5638 22.9887 66.723 22.9887Z" fill="url(#paint16_linear_1_11)"/>
</mask>
<g mask="url(#mask8_1_11)">
<path d="M66.7234 22.9884C68.8826 22.9884 70.633 21.2026 70.633 18.9997C70.633 16.7969 68.8826 15.0111 66.7234 15.0111C64.5641 15.0111 62.8137 16.7969 62.8137 18.9997C62.8137 21.2026 64.5641 22.9884 66.7234 22.9884Z" fill="url(#paint17_linear_1_11)"/>
</g>
<mask id="mask9_1_11" style="mask-type:alpha" maskUnits="userSpaceOnUse" x="70" y="15" width="9" height="8">
<path d="M74.5422 22.9887C76.7014 22.9887 78.4518 21.2029 78.4518 19C78.4518 16.7971 76.7014 15.0113 74.5422 15.0113C72.383 15.0113 70.6326 16.7971 70.6326 19C70.6326 21.2029 72.383 22.9887 74.5422 22.9887Z" fill="url(#paint18_linear_1_11)"/>
</mask>
<g mask="url(#mask9_1_11)">
<path d="M74.5426 22.9883C76.7018 22.9883 78.4522 21.2025 78.4522 18.9996C78.4522 16.7967 76.7018 15.0109 74.5426 15.0109C72.3833 15.0109 70.6329 16.7967 70.6329 18.9996C70.6329 21.2025 72.3833 22.9883 74.5426 22.9883Z" fill="url(#paint19_linear_1_11)"/>
</g>
<mask id="mask10_1_11" style="mask-type:alpha" maskUnits="userSpaceOnUse" x="78" y="15" width="9" height="8">
<path d="M82.3615 22.9887C84.5207 22.9887 86.2711 21.2028 86.2711 19C86.2711 16.7971 84.5207 15.0113 82.3615 15.0113C80.2022 15.0113 78.4518 16.7971 78.4518 19C78.4518 21.2028 80.2022 22.9887 82.3615 22.9887Z" fill="url(#paint20_linear_1_11)"/>
</mask>
<g mask="url(#mask10_1_11)">
<path d="M82.3621 22.9887C84.5214 22.9887 86.2718 21.2028 86.2718 19C86.2718 16.7971 84.5214 15.0113 82.3621 15.0113C80.2029 15.0113 78.4525 16.7971 78.4525 19C78.4525 21.2028 80.2029 22.9887 82.3621 22.9887Z" fill="url(#paint21_linear_1_11)"/>
</g>
<mask id="mask11_1_11" style="mask-type:alpha" maskUnits="userSpaceOnUse" x="86" y="15" width="9" height="8">
<path d="M90.1807 22.9886C92.34 22.9886 94.0904 21.2029 94.0904 19C94.0904 16.7971 92.34 15.0114 90.1807 15.0114C88.0215 15.0114 86.2711 16.7971 86.2711 19C86.2711 21.2029 88.0215 22.9886 90.1807 22.9886Z" fill="url(#paint22_linear_1_11)"/>
</mask>
<g mask="url(#mask11_1_11)">
<path d="M90.1814 22.9886C92.3406 22.9886 94.0911 21.2028 94.0911 18.9999C94.0911 16.7971 92.3406 15.0113 90.1814 15.0113C88.0222 15.0113 86.2718 16.7971 86.2718 18.9999C86.2718 21.2028 88.0222 22.9886 90.1814 22.9886Z" fill="url(#paint23_linear_1_11)"/>
</g>
<mask id="mask12_1_11" style="mask-type:alpha" maskUnits="userSpaceOnUse" x="94" y="15" width="8" height="8">
<path d="M98 22.9887C100.159 22.9887 101.91 21.2029 101.91 19C101.91 16.7971 100.159 15.0113 98 15.0113C95.8408 15.0113 94.0904 16.7971 94.0904 19C94.0904 21.2029 95.8408 22.9887 98 22.9887Z" fill="url(#paint24_linear_1_11)"/>
</mask>
<g mask="url(#mask12_1_11)">
<path d="M98.0007 22.9885C100.16 22.9885 101.91 21.2027 101.91 18.9998C101.91 16.7969 100.16 15.0111 98.0007 15.0111C95.8415 15.0111 94.0911 16.7969 94.0911 18.9998C94.0911 21.2027 95.8415 22.9885 98.0007 22.9885Z" fill="url(#paint25_linear_1_11)"/>
</g>
<mask id="mask13_1_11" style="mask-type:alpha" maskUnits="userSpaceOnUse" x="101" y="15" width="9" height="8">
<path d="M105.819 22.9887C107.978 22.9887 109.729 21.2028 109.729 19C109.729 16.7971 107.978 15.0113 105.819 15.0113C103.66 15.0113 101.91 16.7971 101.91 19C101.91 21.2028 103.66 22.9887 105.819 22.9887Z" fill="url(#paint26_linear_1_11)"/>
</mask>
<g mask="url(#mask13_1_11)">
<path d="M105.82 22.9884C107.979 22.9884 109.73 21.2026 109.73 18.9997C109.73 16.7969 107.979 15.0111 105.82 15.0111C103.661 15.0111 101.91 16.7969 101.91 18.9997C101.91 21.2026 103.661 22.9884 105.82 22.9884Z" fill="url(#paint27_linear_1_11)"/>
</g>
<mask id="mask14_1_11" style="mask-type:alpha" maskUnits="userSpaceOnUse" x="109" y="15" width="9" height="8">
<path d="M113.639 22.9887C115.798 22.9887 117.548 21.2029 117.548 19C117.548 16.7971 115.798 15.0113 113.639 15.0113C111.479 15.0113 109.729 16.7971 109.729 19C109.729 21.2029 111.479 22.9887 113.639 22.9887Z" fill="url(#paint28_linear_1_11)"/>
</mask>
<g mask="url(#mask14_1_11)">
<path d="M113.639 22.9883C115.798 22.9883 117.549 21.2025 117.549 18.9996C117.549 16.7967 115.798 15.0109 113.639 15.0109C111.48 15.0109 109.73 16.7967 109.73 18.9996C109.73 21.2025 111.48 22.9883 113.639 22.9883Z" fill="url(#paint29_linear_1_11)"/>
</g>
<mask id="mask15_1_11" style="mask-type:alpha" maskUnits="userSpaceOnUse" x="117" y="15" width="9" height="8">
<path d="M121.458 22.9887C123.617 22.9887 125.367 21.2028 125.367 19C125.367 16.7971 123.617 15.0113 121.458 15.0113C119.299 15.0113 117.548 16.7971 117.548 19C117.548 21.2028 119.299 22.9887 121.458 22.9887Z" fill="url(#paint30_linear_1_11)"/>
</mask>
<g mask="url(#mask15_1_11)">
<path d="M121.458 22.9887C123.618 22.9887 125.368 21.2028 125.368 19C125.368 16.7971 123.618 15.0113 121.458 15.0113C119.299 15.0113 117.549 16.7971 117.549 19C117.549 21.2028 119.299 22.9887 121.458 22.9887Z" fill="url(#paint31_linear_1_11)"/>
</g>
<mask id="mask16_1_11" style="mask-type:alpha" maskUnits="userSpaceOnUse" x="125" y="15" width="9" height="8">
<path d="M129.277 22.9886C131.436 22.9886 133.187 21.2029 133.187 19C133.187 16.7971 131.436 15.0114 129.277 15.0114C127.118 15.0114 125.367 16.7971 125.367 19C125.367 21.2029 127.118 22.9886 129.277 22.9886Z" fill="url(#paint32_linear_1_11)"/>
</mask>
<g mask="url(#mask16_1_11)">
<path d="M129.278 22.9886C131.437 22.9886 133.187 21.2028 133.187 18.9999C133.187 16.7971 131.437 15.0113 129.278 15.0113C127.118 15.0113 125.368 16.7971 125.368 18.9999C125.368 21.2028 127.118 22.9886 129.278 22.9886Z" fill="url(#paint33_linear_1_11)"/>
</g>
<mask id="mask17_1_11" style="mask-type:alpha" maskUnits="userSpaceOnUse" x="133" y="15" width="9" height="8">
<path d="M137.096 22.9887C139.256 22.9887 141.006 21.2029 141.006 19C141.006 16.7971 139.256 15.0113 137.096 15.0113C134.937 15.0113 133.187 16.7971 133.187 19C133.187 21.2029 134.937 22.9887 137.096 22.9887Z" fill="url(#paint34_linear_1_11)"/>
</mask>
<g mask="url(#mask17_1_11)">
<path d="M137.097 22.9885C139.256 22.9885 141.007 21.2027 141.007 18.9998C141.007 16.7969 139.256 15.0111 137.097 15.0111C134.938 15.0111 133.187 16.7969 133.187 18.9998C133.187 21.2027 134.938 22.9885 137.097 22.9885Z" fill="url(#paint35_linear_1_11)"/>
</g>
</g>
<defs>
<linearGradient id="paint0_linear_1_11" x1="38.3353" y1="107.482" x2="-17.2268" y2="-30.7651" gradientUnits="userSpaceOnUse">
<stop stop-color="#FFA434"/>
<stop offset="1" stop-color="#FFA434"/>
</linearGradient>
<linearGradient id="paint1_linear_1_11" x1="38.3353" y1="107.482" x2="-17.2268" y2="-30.7651" gradientUnits="userSpaceOnUse">
<stop stop-color="#FFA434"/>
<stop offset="1" stop-color="#FFA434"/>
</linearGradient>
<linearGradient id="paint2_linear_1_11" x1="46.1545" y1="107.481" x2="-9.40655" y2="-30.765" gradientUnits="userSpaceOnUse">
<stop stop-color="#FFA434"/>
<stop offset="1" stop-color="#FFA434"/>
</linearGradient>
<linearGradient id="paint3_linear_1_11" x1="46.1545" y1="107.481" x2="-9.40655" y2="-30.7649" gradientUnits="userSpaceOnUse">
<stop stop-color="#FFA434"/>
<stop offset="1" stop-color="#FFA434"/>
</linearGradient>
<linearGradient id="paint4_linear_1_11" x1="53.9737" y1="107.482" x2="-1.58828" y2="-30.7651" gradientUnits="userSpaceOnUse">
<stop stop-color="#FFA434"/>
<stop offset="1" stop-color="#FFA434"/>
</linearGradient>
<linearGradient id="paint5_linear_1_11" x1="53.9737" y1="107.482" x2="-1.58828" y2="-30.765" gradientUnits="userSpaceOnUse">
<stop stop-color="#FFA434"/>
<stop offset="1" stop-color="#FFA434"/>
</linearGradient>
<linearGradient id="paint6_linear_1_11" x1="61.793" y1="107.482" x2="6.231" y2="-30.7651" gradientUnits="userSpaceOnUse">
<stop stop-color="#FFA434"/>
<stop offset="1" stop-color="#FFA434"/>
</linearGradient>
<linearGradient id="paint7_linear_1_11" x1="61.793" y1="107.482" x2="6.231" y2="-30.7653" gradientUnits="userSpaceOnUse">
<stop stop-color="#FFA434"/>
<stop offset="1" stop-color="#FFA434"/>
</linearGradient>
<linearGradient id="paint8_linear_1_11" x1="69.6123" y1="107.482" x2="14.0503" y2="-30.7651" gradientUnits="userSpaceOnUse">
<stop stop-color="#FFA434"/>
<stop offset="1" stop-color="#FFA434"/>
</linearGradient>
<linearGradient id="paint9_linear_1_11" x1="69.6123" y1="107.482" x2="14.0503" y2="-30.7655" gradientUnits="userSpaceOnUse">
<stop stop-color="#FFA434"/>
<stop offset="1" stop-color="#FFA434"/>
</linearGradient>
<linearGradient id="paint10_linear_1_11" x1="77.4316" y1="107.482" x2="21.8696" y2="-30.7651" gradientUnits="userSpaceOnUse">
<stop stop-color="#FFA434"/>
<stop offset="1" stop-color="#FFA434"/>
</linearGradient>
<linearGradient id="paint11_linear_1_11" x1="77.4319" y1="107.482" x2="21.8699" y2="-30.7651" gradientUnits="userSpaceOnUse">
<stop stop-color="#FFA434"/>
<stop offset="1" stop-color="#FFA434"/>
</linearGradient>
<linearGradient id="paint12_linear_1_11" x1="85.2508" y1="107.481" x2="29.6898" y2="-30.765" gradientUnits="userSpaceOnUse">
<stop stop-color="#FFA434"/>
<stop offset="1" stop-color="#FFA434"/>
</linearGradient>
<linearGradient id="paint13_linear_1_11" x1="85.2512" y1="107.481" x2="29.6902" y2="-30.7651" gradientUnits="userSpaceOnUse">
<stop stop-color="#FFA434"/>
<stop offset="1" stop-color="#FFA434"/>
</linearGradient>
<linearGradient id="paint14_linear_1_11" x1="93.0701" y1="107.482" x2="37.5081" y2="-30.7651" gradientUnits="userSpaceOnUse">
<stop stop-color="#FFA434"/>
<stop offset="1" stop-color="#FFA434"/>
</linearGradient>
<linearGradient id="paint15_linear_1_11" x1="93.0705" y1="107.482" x2="37.5085" y2="-30.7653" gradientUnits="userSpaceOnUse">
<stop stop-color="#FFA434"/>
<stop offset="1" stop-color="#FFA434"/>
</linearGradient>
<linearGradient id="paint16_linear_1_11" x1="100.889" y1="107.482" x2="45.3274" y2="-30.7651" gradientUnits="userSpaceOnUse">
<stop stop-color="#FFA434"/>
<stop offset="1" stop-color="#FFA434"/>
</linearGradient>
<linearGradient id="paint17_linear_1_11" x1="100.89" y1="107.482" x2="45.3278" y2="-30.7654" gradientUnits="userSpaceOnUse">
<stop stop-color="#FFA434"/>
<stop offset="1" stop-color="#FFA434"/>
</linearGradient>
<linearGradient id="paint18_linear_1_11" x1="108.709" y1="107.482" x2="53.1466" y2="-30.7651" gradientUnits="userSpaceOnUse">
<stop stop-color="#FFA434"/>
<stop offset="1" stop-color="#FFA434"/>
</linearGradient>
<linearGradient id="paint19_linear_1_11" x1="108.709" y1="107.482" x2="53.147" y2="-30.7655" gradientUnits="userSpaceOnUse">
<stop stop-color="#FFA434"/>
<stop offset="1" stop-color="#FFA434"/>
</linearGradient>
<linearGradient id="paint20_linear_1_11" x1="116.528" y1="107.482" x2="60.9659" y2="-30.7651" gradientUnits="userSpaceOnUse">
<stop stop-color="#FFA434"/>
<stop offset="1" stop-color="#FFA434"/>
</linearGradient>
<linearGradient id="paint21_linear_1_11" x1="116.529" y1="107.482" x2="60.9666" y2="-30.7651" gradientUnits="userSpaceOnUse">
<stop stop-color="#FFA434"/>
<stop offset="1" stop-color="#FFA434"/>
</linearGradient>
<linearGradient id="paint22_linear_1_11" x1="124.347" y1="107.481" x2="68.7861" y2="-30.765" gradientUnits="userSpaceOnUse">
<stop stop-color="#FFA434"/>
<stop offset="1" stop-color="#FFA434"/>
</linearGradient>
<linearGradient id="paint23_linear_1_11" x1="124.348" y1="107.481" x2="68.7868" y2="-30.7651" gradientUnits="userSpaceOnUse">
<stop stop-color="#FFA434"/>
<stop offset="1" stop-color="#FFA434"/>
</linearGradient>
<linearGradient id="paint24_linear_1_11" x1="132.166" y1="107.482" x2="76.6044" y2="-30.7651" gradientUnits="userSpaceOnUse">
<stop stop-color="#FFA434"/>
<stop offset="1" stop-color="#FFA434"/>
</linearGradient>
<linearGradient id="paint25_linear_1_11" x1="132.167" y1="107.482" x2="76.6051" y2="-30.7653" gradientUnits="userSpaceOnUse">
<stop stop-color="#FFA434"/>
<stop offset="1" stop-color="#FFA434"/>
</linearGradient>
<linearGradient id="paint26_linear_1_11" x1="139.986" y1="107.482" x2="84.4237" y2="-30.7651" gradientUnits="userSpaceOnUse">
<stop stop-color="#FFA434"/>
<stop offset="1" stop-color="#FFA434"/>
</linearGradient>
<linearGradient id="paint27_linear_1_11" x1="139.986" y1="107.482" x2="84.4243" y2="-30.7654" gradientUnits="userSpaceOnUse">
<stop stop-color="#FFA434"/>
<stop offset="1" stop-color="#FFA434"/>
</linearGradient>
<linearGradient id="paint28_linear_1_11" x1="147.805" y1="107.482" x2="92.2429" y2="-30.7651" gradientUnits="userSpaceOnUse">
<stop stop-color="#FFA434"/>
<stop offset="1" stop-color="#FFA434"/>
</linearGradient>
<linearGradient id="paint29_linear_1_11" x1="147.806" y1="107.482" x2="92.2436" y2="-30.7655" gradientUnits="userSpaceOnUse">
<stop stop-color="#FFA434"/>
<stop offset="1" stop-color="#FFA434"/>
</linearGradient>
<linearGradient id="paint30_linear_1_11" x1="155.624" y1="107.482" x2="100.062" y2="-30.7651" gradientUnits="userSpaceOnUse">
<stop stop-color="#FFA434"/>
<stop offset="1" stop-color="#FFA434"/>
</linearGradient>
<linearGradient id="paint31_linear_1_11" x1="155.625" y1="107.482" x2="100.063" y2="-30.7651" gradientUnits="userSpaceOnUse">
<stop stop-color="#FFA434"/>
<stop offset="1" stop-color="#FFA434"/>
</linearGradient>
<linearGradient id="paint32_linear_1_11" x1="163.443" y1="107.481" x2="107.882" y2="-30.765" gradientUnits="userSpaceOnUse">
<stop stop-color="#FFA434"/>
<stop offset="1" stop-color="#FFA434"/>
</linearGradient>
<linearGradient id="paint33_linear_1_11" x1="163.444" y1="107.481" x2="107.883" y2="-30.7651" gradientUnits="userSpaceOnUse">
<stop stop-color="#FFA434"/>
<stop offset="1" stop-color="#FFA434"/>
</linearGradient>
<linearGradient id="paint34_linear_1_11" x1="171.263" y1="107.482" x2="115.701" y2="-30.7651" gradientUnits="userSpaceOnUse">
<stop stop-color="#FFA434"/>
<stop offset="1" stop-color="#FFA434"/>
</linearGradient>
<linearGradient id="paint35_linear_1_11" x1="171.263" y1="107.482" x2="115.701" y2="-30.7653" gradientUnits="userSpaceOnUse">
<stop stop-color="#FFA434"/>
<stop offset="1" stop-color="#FFA434"/>
</linearGradient>
</defs>
</svg>
